<svg xmlns="http://www.w3.org/2000/svg" version="1.1" xmlns:xlink="http://www.w3.org/1999/xlink" xmlns:svgjs="http://svgjs.dev/svgjs" width="1440" height="560" preserveAspectRatio="none" viewBox="0 0 1440 560"><g mask="url(&quot;#SvgjsMask1013&quot;)" fill="none"><path d="M159.34 661.49C300.94 634.37 359.28 280.06 587.42 275.05 815.56 270.04 801.46 345.05 1015.5 345.05 1229.54 345.05 1335.14 275.28 1443.58 275.05" stroke="rgba(255, 255, 255, 1)" stroke-width="2"></path><path d="M757.12 590.05C903.66 559.08 970.01 178.69 1191.81 177.79 1413.61 176.89 1503.16 405.61 1626.5 412.99" stroke="rgba(255, 255, 255, 1)" stroke-width="2"></path><path d="M690.6 576.71C834.24 556.15 917.13 218.43 1147.08 218.22 1377.03 218.01 1474.1 456.92 1603.56 464.62" stroke="rgba(255, 255, 255, 1)" stroke-width="2"></path><path d="M652.89 607.13C773.45 578.87 733.75 258.29 1003.02 256.8 1272.28 255.31 1525.98 368.45 1703.27 368.8" stroke="rgba(255, 255, 255, 1)" stroke-width="2"></path><path d="M190.54 593.29C324.28 579.63 405.99 294.16 636.14 292.29 866.3 290.42 858.94 362.29 1081.75 362.29 1304.55 362.29 1414.58 292.5 1527.35 292.29" stroke="rgba(255, 255, 255, 1)" stroke-width="2"></path></g><defs><mask id="SvgjsMask1013"><rect width="1440" height="560" fill="#ffffff"></rect></mask></defs></svg>